<svg width="102" height="37" viewBox="0 0 102 37" fill="none" xmlns="http://www.w3.org/2000/svg">
<path d="M35.8422 22.3326C35.7083 21.2886 35.6967 20.2517 35.8072 19.2218C35.9307 18.1752 36.1588 17.1757 36.4915 16.2235C36.8223 15.2564 37.2456 14.3607 37.7615 13.5366C38.2903 12.6957 38.8848 11.9525 39.5448 11.3069C40.2198 10.6595 40.9557 10.1331 41.7527 9.72775C42.5477 9.30746 43.3852 9.04091 44.2652 8.92809C45.2942 8.79615 46.1199 8.9101 46.7421 9.26995C47.3792 9.62789 47.7474 10.1946 47.8469 10.9702C47.8851 11.2684 47.8796 11.5799 47.8302 11.9046C47.7958 12.2273 47.7167 12.5558 47.5928 12.8901C47.4819 13.2075 47.3402 13.5213 47.1677 13.8314C46.9953 14.1415 46.7956 14.4173 46.5689 14.6586C46.1735 14.6486 45.8159 14.5201 45.4962 14.2731C45.1746 14.0111 44.9516 13.6911 44.8273 13.3129C45.2939 12.8134 45.6467 12.3134 45.8857 11.8128C46.1377 11.2954 46.2388 10.8428 46.1891 10.4551C46.105 9.79884 45.6528 9.52331 44.8325 9.62848C44.4894 9.67246 44.1411 9.79293 43.7873 9.98987C43.4466 10.17 43.1061 10.4107 42.7657 10.7121C42.4254 11.0134 42.0992 11.366 41.7871 11.7698C41.49 12.1718 41.22 12.6081 40.9772 13.0789C39.2866 16.3275 38.6411 19.5103 39.0407 22.6274C39.1822 23.7311 39.4675 24.5965 39.8966 25.2236C40.3257 25.8508 40.8312 26.1877 41.4133 26.2343C42.0354 26.003 42.7957 25.4886 43.694 24.6913C44.5922 23.8939 45.5542 22.8838 46.5798 21.6608C46.7481 21.7908 46.8577 21.9359 46.9085 22.0962C46.5487 22.7184 46.171 23.3201 45.7756 23.9014C45.3802 24.4826 44.9791 25.0192 44.5722 25.511C44.1802 26.0008 43.7816 26.4385 43.3762 26.824C42.9858 27.2076 42.6156 27.5127 42.2657 27.7395C40.4125 27.9468 38.9427 27.5971 37.8562 26.6904C36.7698 25.7837 36.0984 24.3311 35.8422 22.3326Z" fill="#EFF31C"/>
<path d="M48.5982 23.6304C48.581 23.4962 48.5674 23.3312 48.5575 23.1354C48.5605 22.9228 48.5708 22.6486 48.5884 22.3128C48.6041 21.9621 48.6261 21.5424 48.6544 21.0537C48.6976 20.5631 48.7507 19.9726 48.8138 19.2824C48.8245 19.1294 48.8611 18.8822 48.9234 18.5407C48.9857 18.1992 49.076 17.8389 49.1941 17.46C49.3253 17.0642 49.4882 16.6794 49.6829 16.3058C49.8924 15.9303 50.1582 15.6385 50.4802 15.4305C50.7414 15.4576 51.097 15.5712 51.5471 15.7712C51.9953 15.9563 52.3963 16.246 52.75 16.6402C52.4567 17.072 52.2156 17.497 52.0267 17.9154C51.8527 18.3318 51.6955 18.7613 51.5552 19.2038C51.4298 19.6443 51.3137 20.0988 51.207 20.5673C51.1152 21.0338 51.004 21.5256 50.8732 22.0426C50.7627 22.4812 50.669 22.9329 50.5921 23.3975C50.5133 23.8472 50.4875 24.2371 50.5147 24.5671C50.5491 24.8356 50.5655 25.023 50.564 25.1293C50.5793 25.2486 50.5497 25.313 50.4751 25.3226C50.4154 25.3302 50.2914 25.3083 50.1028 25.2566C49.9143 25.205 49.7135 25.1171 49.5005 24.9928C49.3005 24.8517 49.1106 24.6714 48.9309 24.4519C48.7512 24.2323 48.6403 23.9585 48.5982 23.6304ZM51.6263 13.3734C51.6148 13.284 51.62 13.1469 51.6417 12.9622C51.5576 12.8971 51.4762 12.7939 51.3974 12.6524C51.3335 12.509 51.2939 12.3776 51.2786 12.2583C51.2614 12.1241 51.2534 11.9432 51.2545 11.7157C51.2687 11.4713 51.2884 11.2111 51.3136 10.935C51.3389 10.6589 51.3781 10.3734 51.4312 10.0786C51.4824 9.7688 51.5375 9.48887 51.5964 9.23877C51.7754 9.21582 51.9983 9.2403 52.2652 9.31219C52.5452 9.36725 52.8299 9.45961 53.1194 9.58924C53.4069 9.70396 53.675 9.84393 53.9236 10.0091C54.1703 10.1594 54.3638 10.3089 54.5041 10.4577C54.3611 10.6428 54.1745 10.9017 53.9443 11.2344C53.7121 11.5522 53.4903 11.8914 53.2789 12.252C53.0655 12.5977 52.8726 12.9256 52.7001 13.2358C52.5276 13.5459 52.4192 13.7645 52.3748 13.8914C52.1921 13.8845 52.0259 13.83 51.8764 13.7279C51.7249 13.6109 51.6416 13.4928 51.6263 13.3734Z" fill="#EFF31C"/>
<path d="M53.3713 32.0686C53.1548 32.0357 53.0068 31.8273 52.9273 31.4433C52.8428 31.2571 52.7684 31.0317 52.7041 30.767C52.6548 30.5005 52.6081 30.1957 52.5642 29.8527C52.524 29.5395 52.5208 29.1003 52.5544 28.5351C52.59 27.9848 52.6532 27.3551 52.7443 26.6461C52.8502 25.9352 52.9867 25.1673 53.1538 24.3425C53.319 23.5027 53.5131 22.6516 53.736 21.7893C54.0067 20.7085 54.2435 19.7762 54.4461 18.9923C54.6469 18.1934 54.8088 17.5056 54.932 16.9289C55.07 16.3503 55.1757 15.8744 55.2492 15.5012C55.3375 15.126 55.4027 14.8069 55.4448 14.5438C55.4815 14.3572 55.5432 14.1295 55.63 13.8606C55.7168 13.5918 55.8186 13.321 55.9352 13.0484C56.0648 12.7589 56.1973 12.4918 56.3327 12.247C56.4662 11.9874 56.5924 11.7893 56.7113 11.6527C57.2429 11.6604 57.7522 11.7315 58.2394 11.8661C58.7266 12.0007 59.0339 12.1508 59.1613 12.3164C58.9773 12.5371 58.7779 12.8734 58.563 13.3254C58.3461 13.7625 58.1425 14.2434 57.9521 14.7681C57.7597 15.2778 57.5917 15.7996 57.4479 16.3335C57.3041 16.8673 57.2049 17.3349 57.1502 17.736C57.2668 17.4633 57.4253 17.1626 57.6257 16.8337C57.8261 16.5048 58.1389 16.0478 58.5641 15.4627C59.0433 14.8252 59.5024 14.3268 59.9414 13.9673C60.3934 13.591 60.7984 13.3799 61.1563 13.334C61.7231 13.2613 62.2055 13.3586 62.6036 13.626C63.0166 13.8913 63.2546 14.2701 63.3177 14.7623C63.4554 15.8361 63.4132 16.9254 63.191 18.0302C62.9669 19.1201 62.5738 20.1331 62.0117 21.0693C61.8002 21.4299 61.5421 21.7814 61.2373 22.1236C60.9325 22.4659 60.609 22.7802 60.2667 23.0667C59.9225 23.3382 59.5801 23.564 59.2394 23.7441C58.8986 23.9242 58.5866 24.0325 58.3032 24.0688C58.0348 24.1032 57.7894 24.0816 57.5673 24.004C57.3581 23.9095 57.2057 23.7851 57.1101 23.6306C57.6477 23.213 58.1533 22.663 58.6267 21.9808C59.1001 21.2986 59.5174 20.5326 59.8783 19.6829C60.2523 18.8163 60.5516 17.8987 60.776 16.93C61.0154 15.9595 61.1634 14.9854 61.22 14.008C60.6915 14.3789 60.219 14.773 59.8026 15.1902C59.3991 15.5906 59.01 16.1029 58.6353 16.727C58.1825 17.4521 57.8253 18.036 57.5638 18.4788C57.3022 18.9217 57.0852 19.2982 56.9127 19.6083C56.7552 19.9165 56.6255 20.206 56.5238 20.4768C56.4351 20.7307 56.3391 21.0462 56.2359 21.4233C56.0882 21.9273 55.9234 22.5927 55.7414 23.4195C55.5724 24.2294 55.4009 25.1382 55.2269 26.1459C55.0678 27.1517 54.9089 28.218 54.7502 29.345C54.6084 30.485 54.473 31.6166 54.3441 32.7397C54.1763 32.7309 54.0193 32.6298 53.8732 32.4363C53.7367 32.3173 53.6348 32.2319 53.5675 32.1799C53.5151 32.1259 53.4497 32.0889 53.3713 32.0686Z" fill="#EFF31C"/>
<path d="M65.1258 22.6483C65.0588 22.1263 65.0326 21.5081 65.0472 20.7938C65.0598 20.0645 65.1114 19.2848 65.202 18.4546C65.3076 17.6224 65.4382 16.7492 65.5938 15.8348C65.7643 14.9185 65.9647 13.9985 66.1949 13.0745C66.3919 12.2458 66.6326 11.4039 66.9171 10.5489C67.2165 9.69187 67.5477 8.84596 67.9106 8.01115C68.2735 7.17633 68.6561 6.37689 69.0584 5.61282C69.4756 4.84684 69.9005 4.14051 70.333 3.49385C70.5716 3.46325 70.829 3.46057 71.1051 3.48581C71.3961 3.50913 71.675 3.55674 71.942 3.62863C72.2219 3.6837 72.4749 3.76496 72.7009 3.87242C72.9418 3.97796 73.138 4.08924 73.2894 4.20626C72.3181 5.49807 71.4605 6.79045 70.7168 8.0834C69.9711 9.36144 69.4032 10.5485 69.0131 11.6445C68.8024 12.2475 68.6093 12.8105 68.4338 13.3332C68.2732 13.8541 68.1275 14.373 67.9967 14.89C67.864 15.3921 67.7472 15.8998 67.6462 16.413C67.5583 16.9094 67.4816 17.4346 67.4162 17.9888C69.8112 13.9676 71.7023 11.8682 73.0893 11.6903C73.4771 11.6406 73.9109 11.7138 74.3908 11.91C74.8708 12.1062 75.31 12.3985 75.7085 12.7871C75.3111 13.3534 74.9123 14.0261 74.5119 14.8051C74.1115 15.5841 73.7494 16.3657 73.4255 17.1501C73.1146 17.9176 72.8651 18.6317 72.6769 19.2926C72.5018 19.9365 72.4333 20.4077 72.4716 20.706C72.4907 20.8551 72.5265 20.9566 72.5788 21.0106C72.6293 21.0496 72.7291 21.0595 72.8783 21.0404C73.102 21.0117 73.2771 20.9589 73.4037 20.8821C73.5303 20.8052 73.6085 20.7648 73.6383 20.761C73.7282 20.8708 73.7835 20.9471 73.8041 20.9899C73.8248 21.0327 73.837 21.0691 73.8408 21.0989C73.8485 21.1585 73.7704 21.2595 73.6068 21.4018C73.4412 21.5291 73.2393 21.6687 73.001 21.8205C72.7758 21.9555 72.5496 22.083 72.3224 22.2031C72.0953 22.3232 71.9221 22.3909 71.8027 22.4062C71.6536 22.4253 71.4987 22.3997 71.3381 22.3293C71.1794 22.2739 71.0318 22.1867 70.8953 22.0678C70.7737 21.9469 70.6651 21.8092 70.5694 21.6547C70.4888 21.4983 70.4369 21.3307 70.414 21.1517C70.3853 20.928 70.4029 20.5922 70.4668 20.1444C70.5436 19.6798 70.6566 19.1423 70.8058 18.5319C70.953 17.9067 71.1383 17.2235 71.3616 16.4824C71.5849 15.7413 71.8287 14.9824 72.0929 14.2057C72.0853 14.146 72.0516 14.12 71.992 14.1277C71.9472 14.1334 71.8356 14.2083 71.657 14.3525C71.4933 14.4948 71.3371 14.6361 71.1883 14.7764C70.703 15.248 70.2227 15.8174 69.7474 16.4847C69.2851 17.1352 68.8378 17.8444 68.4057 18.6123C67.9885 19.3783 67.5994 20.1861 67.2384 21.0358C66.8904 21.8687 66.603 22.7015 66.3763 23.534C66.3449 23.6441 66.2902 23.7497 66.2122 23.8506C66.1342 23.9516 66.0654 24.0059 66.0057 24.0135C65.961 24.0193 65.8872 23.9757 65.7843 23.8827C65.6963 23.7879 65.6046 23.6632 65.509 23.5087C65.4302 23.3672 65.3504 23.2183 65.2698 23.0619C65.1891 22.9055 65.1411 22.7676 65.1258 22.6483Z" fill="#EFF31C"/>
<path d="M81.3538 21.7728C80.8035 21.7373 80.2829 21.6373 79.7918 21.4728C79.3177 21.3214 78.8926 21.0803 78.5167 20.7495C78.1538 20.4019 77.84 19.9646 77.5754 19.4376C77.3237 18.8938 77.1463 18.2193 77.043 17.4139C76.9264 16.5041 76.9327 15.5483 77.0619 14.5464C77.1912 13.5444 77.4212 12.5599 77.752 11.5928C78.0957 10.6088 78.5208 9.66748 79.0271 8.7688C79.5464 7.8533 80.1323 7.04295 80.7847 6.33777C81.4351 5.61768 82.1401 5.02703 82.8996 4.56584C83.6721 4.08781 84.4759 3.79525 85.3111 3.68817C85.9375 3.60786 86.4897 3.65833 86.9677 3.83959C87.4587 4.00403 87.8802 4.27592 88.232 4.65527C88.5968 5.0178 88.8911 5.48033 89.1148 6.04286C89.3366 6.59048 89.4905 7.19986 89.5766 7.87099C89.6894 8.75093 89.6961 9.68995 89.5967 10.6881C89.5122 11.6842 89.3279 12.6705 89.0437 13.6468C88.7596 14.6231 88.3812 15.5736 87.9086 16.4983C87.4489 17.4062 86.8948 18.2276 86.2462 18.9626C85.5977 19.6976 84.8657 20.3144 84.0504 20.8131C83.2351 21.3118 82.3363 21.6317 81.3538 21.7728ZM79.957 17.9726C80.0871 18.9867 80.3578 19.6797 80.7693 20.0514C81.1808 20.4231 81.7372 20.6246 82.4385 20.656C83.1058 20.5401 83.7072 20.2053 84.2426 19.6515C84.7929 19.0959 85.2747 18.4201 85.6881 17.6243C86.0996 16.8136 86.4493 15.935 86.7372 14.9885C87.0382 14.0252 87.273 13.078 87.4416 12.1468C87.6102 11.2156 87.7185 10.3452 87.7663 9.53566C87.8121 8.71117 87.8016 8.03793 87.7347 7.51594C87.6295 6.69566 87.4475 6.04441 87.1886 5.56218C86.9427 5.06313 86.5968 4.78913 86.1509 4.74019C85.4763 4.91763 84.8405 5.2796 84.2436 5.82607C83.6597 6.35572 83.1208 7.00086 82.6271 7.76149C82.1484 8.52021 81.7258 9.36267 81.3595 10.2889C80.9912 11.2002 80.6845 12.1187 80.4394 13.0446C80.2092 13.9685 80.0507 14.8605 79.9639 15.7205C79.8771 16.5806 79.8748 17.3313 79.957 17.9726Z" fill="#EFF31C"/>
<path d="M90.6223 19.3111C90.6415 18.869 90.6956 18.286 90.7847 17.5621C90.8868 16.8214 91.0139 16.0395 91.1661 15.2166C91.3164 14.3787 91.4816 13.5389 91.6617 12.6972C91.8418 11.8555 92.025 11.0968 92.2112 10.4211C92.3458 9.93386 92.4714 9.55393 92.5881 9.28126C92.7028 8.99369 92.8382 8.74894 92.9942 8.54702C93.2068 8.55008 93.4298 8.57455 93.663 8.62044C93.8963 8.66633 94.124 8.72809 94.3462 8.80572C94.5684 8.88334 94.7692 8.9713 94.9485 9.06958C95.126 9.15294 95.2661 9.24109 95.369 9.33401C95.0275 9.8629 94.7393 10.4532 94.5046 11.1048C94.2847 11.7545 94.0793 12.5767 93.8885 13.5714C94.6021 12.7522 95.2225 11.9754 95.7499 11.2407C96.2921 10.5042 96.7801 9.69882 97.2138 8.82462C97.2937 8.73858 97.4455 8.68121 97.6692 8.65253C97.878 8.62576 98.0841 8.63723 98.2876 8.68694C98.4891 8.72174 98.6348 8.79401 98.7247 8.90377C98.548 9.65407 98.5046 10.3797 98.5945 11.0807C98.6786 11.7369 98.8387 12.2166 99.0746 12.5199C99.0712 12.6113 98.9888 12.7962 98.8274 13.0746C98.6809 13.3511 98.5102 13.6155 98.3152 13.8679C97.8857 13.7107 97.4914 13.4733 97.1323 13.1555C96.7713 12.8228 96.4885 12.4497 96.2839 12.0363C95.6461 12.6184 95.1117 13.1796 94.6807 13.7199C94.2478 14.2454 93.8897 14.8219 93.6063 15.4494C93.3359 16.0601 93.1218 16.7546 92.9639 17.5328C92.8208 18.3091 92.7034 19.2262 92.6117 20.2839C92.4755 20.2862 92.3048 20.2551 92.0994 20.1904C91.9109 20.1388 91.712 20.0658 91.5029 19.9713C91.3086 19.8749 91.1283 19.7692 90.9619 19.6541C90.7956 19.539 90.6824 19.4247 90.6223 19.3111Z" fill="#EFF31C"/>
<path d="M16.112 16.6582H5.37066C4.71178 16.6589 4.17786 17.1929 4.17716 17.8517H3.58044C2.92155 17.8524 2.38763 18.3864 2.38693 19.0452V20.2387C2.38756 20.8976 2.92155 21.4316 3.58044 21.4323H4.17716V25.0126H3.58044C2.92155 25.0133 2.38763 25.5472 2.38693 26.2061V27.3996C2.38756 28.0585 2.92155 28.5924 3.58044 28.5931H4.17716C4.17779 29.252 4.71178 29.786 5.37066 29.7867H16.112C16.7709 29.786 17.3048 29.252 17.3055 28.5931V17.8517C17.3048 17.1929 16.7709 16.6589 16.112 16.6582ZM4.17716 27.3996H3.58044V26.2061H4.17716V27.3996V27.3996ZM4.17716 20.2387H3.58044V19.0452H4.17716V20.2387V20.2387ZM5.37066 28.5931V17.8517H16.112L16.1128 28.5931H5.37066Z" fill="#EFF31C"/>
<path d="M9.54782 24.416H7.16088C6.8313 24.416 6.56416 24.6831 6.56416 25.0127C6.56416 25.3423 6.8313 25.6094 7.16088 25.6094H9.54782C9.87741 25.6094 10.1445 25.3423 10.1445 25.0127C10.1445 24.6831 9.87741 24.416 9.54782 24.416Z" fill="#EFF31C"/>
<path d="M9.54782 26.2062H7.16088C6.8313 26.2062 6.56416 26.4734 6.56416 26.8029C6.56416 27.1325 6.8313 27.3996 7.16088 27.3996H9.54782C9.87741 27.3996 10.1445 27.1324 10.1445 26.8029C10.1446 26.4733 9.87741 26.2062 9.54782 26.2062Z" fill="#EFF31C"/>
<path d="M14.3218 22.0289C13.9922 22.0289 13.7251 22.2961 13.7251 22.6256V23.8192C13.7251 24.1487 13.9922 24.4159 14.3218 24.4159C14.6514 24.4159 14.9185 24.1487 14.9185 23.8192V22.6256C14.9185 22.2961 14.6514 22.0289 14.3218 22.0289Z" fill="#EFF31C"/>
<path d="M28.6436 15.4648H19.6925C19.0336 15.4654 18.4996 15.9994 18.4989 16.6583V21.4322C18.4996 22.0911 19.0336 22.625 19.6925 22.6257H28.6436C29.3025 22.6251 29.8364 22.0911 29.8371 21.4322V16.6582C29.8364 15.9994 29.3025 15.4654 28.6436 15.4648ZM19.6925 21.4322V16.6582H28.6436L28.6444 21.4322H19.6925Z" fill="#EFF31C"/>
<path d="M28.6436 23.8192H19.6925C19.0336 23.8198 18.4996 24.3538 18.4989 25.0127V29.7866C18.4996 30.4455 19.0336 30.9794 19.6925 30.9801H28.6436C29.3025 30.9795 29.8364 30.4455 29.8371 29.7866V25.0127C29.8364 24.3538 29.3025 23.8199 28.6436 23.8192ZM19.6925 29.7866V25.0127H28.6436L28.6444 29.7866H19.6925Z" fill="#EFF31C"/>
<path d="M25.0631 26.2062H23.2729C22.9433 26.2062 22.6762 26.4734 22.6762 26.8029C22.6762 27.1325 22.9434 27.3996 23.2729 27.3996H25.0631C25.3927 27.3996 25.6598 27.1324 25.6598 26.8029C25.6598 26.4733 25.3927 26.2062 25.0631 26.2062Z" fill="#EFF31C"/>
<path d="M35.2077 35.1573H31.0306V33.367C31.6895 33.3664 32.2234 32.8324 32.2241 32.1735V11.8844H34.0143C34.2987 11.8844 34.5436 11.6837 34.5994 11.4048L35.7929 5.43739C35.828 5.26208 35.7826 5.08026 35.6694 4.942C35.5561 4.80375 35.3866 4.72354 35.2079 4.72354H31.0307C28.066 4.72697 25.6635 7.1295 25.6601 10.0942V13.0779H19.6925V11.8844C19.6899 9.57854 17.8212 7.70986 15.5153 7.70727H14.9186C14.9186 7.37769 14.6514 7.11055 14.3219 7.11055H7.16089C6.83131 7.11055 6.56417 7.37769 6.56417 7.70727H0.596718C0.267135 7.70713 0 7.97433 0 8.30392V10.6909C0 11.0204 0.267135 11.2876 0.596718 11.2876H2.38694V13.0778H1.19351C0.534619 13.0785 0.000629375 13.6124 0 14.2713V32.1735C0.000629375 32.8324 0.534619 33.3663 1.19351 33.367V35.1573H0.596718C0.267135 35.1573 0 35.4244 0 35.754C0 36.0836 0.267135 36.3507 0.596718 36.3507H35.2077C35.5373 36.3507 35.8044 36.0835 35.8044 35.754C35.8045 35.4244 35.5373 35.1573 35.2077 35.1573ZM32.224 5.91691H34.4798L33.525 10.6909H32.224V5.91691ZM26.8533 10.0941C26.8559 7.78825 28.7246 5.91956 31.0305 5.91698V10.6909H26.8533V10.0941ZM26.8533 11.8844H31.0305V13.0779H26.8533V11.8844ZM14.9185 8.90064H15.5152C17.1623 8.90259 18.497 10.2373 18.4989 11.8844V13.0779H14.9185V8.90064V8.90064ZM7.75761 8.30392H13.725V10.6909H7.75761V8.30392V8.30392ZM7.16089 11.8844H13.7251V13.0779H3.58045V11.2876H6.56417C6.56417 11.6172 6.83131 11.8844 7.16089 11.8844ZM1.19351 10.0941V8.90064H6.56417V10.0941H1.19351ZM1.19351 14.2713H31.0306L31.0315 32.1735H1.19351V14.2713ZM29.8371 35.1573H2.38694V33.367H29.837V35.1573H29.8371Z" fill="#EFF31C"/>
</svg>
